# xmcd
#
# Track frame offsets:
#	150
#	14862
#	28766
#	43553
#	58260
#	72947
#	88087
#	101904
#	112751
#	127480
#	148890
#	162349
#	176944
#	190136
#	205925
#	225217
#	238017
#	250376
#	265761
#	282938
#	296647
#
# Disc length: 4187 seconds
#
# Revision: 1
# Processed by: cddbd v1.5.1PL2 Copyright (c) Steve Scherf et al.
# Submitted via: EasyCDDAExtractor 8.2.3.1
#
DISCID=4a105915
DTITLE=Jacó e Jacózito - Os Grandes Sucessos da Família Jacó
DYEAR=1998
DGENRE=Sertanejo
TTITLE0=Sete irmãos
TTITLE1=Florzinha do campo
TTITLE2=Mãezinha querida
TTITLE3=Papai me disse
TTITLE4=Desate que eu quero ver
TTITLE5=Uai
TTITLE6=O ladrão e o japonês
TTITLE7=Menina moça
TTITLE8=Motorista de caminhão
TTITLE9=Capa do viajante
TTITLE10=Mar vermelho
TTITLE11=Muleta de arueira
TTITLE12=João de pé no chão
TTITLE13=O caçador
TTITLE14=Igrejinha da Serra
TTITLE15=Beijo inocente
TTITLE16=Gente da minha terra
TTITLE17=Relógio quebrado
TTITLE18=Caboclo pé rachado
TTITLE19=Não é moleza
TTITLE20=Vidas marcadas
EXTD=
EXTT0=
EXTT1=
EXTT2=
EXTT3=
EXTT4=
EXTT5=
EXTT6=
EXTT7=
EXTT8=
EXTT9=
EXTT10=
EXTT11=
EXTT12=
EXTT13=
EXTT14=
EXTT15=
EXTT16=
EXTT17=
EXTT18=
EXTT19=
EXTT20=
PLAYORDER=
